<mxfile host="app.diagrams.net" agent="Mozilla/5.0 (Windows NT 10.0; Win64; x64) AppleWebKit/537.36 (KHTML, like Gecko) Chrome/130.0.0.0 Safari/537.36" version="24.8.3">
  <diagram name="Страница — 1" id="nu_nObjHO2e9Y7rCIEI5">
    <mxGraphModel dx="1588" dy="505" grid="1" gridSize="10" guides="1" tooltips="1" connect="1" arrows="1" fold="1" page="1" pageScale="1" pageWidth="827" pageHeight="1169" math="0" shadow="0">
      <root>
        <mxCell id="0" />
        <mxCell id="1" parent="0" />
        <mxCell id="8asCWF7hndouSURrxrHH-3" style="edgeStyle=orthogonalEdgeStyle;rounded=0;orthogonalLoop=1;jettySize=auto;html=1;exitX=0.5;exitY=1;exitDx=0;exitDy=0;" edge="1" parent="1" source="8asCWF7hndouSURrxrHH-1" target="8asCWF7hndouSURrxrHH-2">
          <mxGeometry relative="1" as="geometry" />
        </mxCell>
        <mxCell id="8asCWF7hndouSURrxrHH-1" value="&lt;font style=&quot;font-size: 8px;&quot;&gt;Исток (начало рассмотрения процесса)&lt;/font&gt;" style="ellipse;whiteSpace=wrap;html=1;aspect=fixed;" vertex="1" parent="1">
          <mxGeometry x="240" y="90" width="80" height="80" as="geometry" />
        </mxCell>
        <mxCell id="8asCWF7hndouSURrxrHH-15" style="rounded=0;orthogonalLoop=1;jettySize=auto;html=1;exitX=0.5;exitY=1;exitDx=0;exitDy=0;" edge="1" parent="1" source="8asCWF7hndouSURrxrHH-2">
          <mxGeometry relative="1" as="geometry">
            <mxPoint x="220" y="320" as="targetPoint" />
          </mxGeometry>
        </mxCell>
        <mxCell id="8asCWF7hndouSURrxrHH-16" style="rounded=0;orthogonalLoop=1;jettySize=auto;html=1;exitX=0.5;exitY=1;exitDx=0;exitDy=0;" edge="1" parent="1" source="8asCWF7hndouSURrxrHH-2">
          <mxGeometry relative="1" as="geometry">
            <mxPoint x="340" y="320" as="targetPoint" />
          </mxGeometry>
        </mxCell>
        <mxCell id="8asCWF7hndouSURrxrHH-2" value="&lt;font style=&quot;font-size: 10px;&quot;&gt;Исходная страница (элемент 1)&lt;/font&gt;" style="ellipse;whiteSpace=wrap;html=1;aspect=fixed;" vertex="1" parent="1">
          <mxGeometry x="240" y="200" width="80" height="80" as="geometry" />
        </mxCell>
        <mxCell id="8asCWF7hndouSURrxrHH-4" value="" style="triangle;whiteSpace=wrap;html=1;direction=south;fillColor=#000000;" vertex="1" parent="1">
          <mxGeometry x="275" y="100" width="10" height="10" as="geometry" />
        </mxCell>
        <mxCell id="8asCWF7hndouSURrxrHH-6" value="" style="ellipse;whiteSpace=wrap;html=1;aspect=fixed;fillColor=#000000;" vertex="1" parent="1">
          <mxGeometry x="275" y="210" width="10" height="10" as="geometry" />
        </mxCell>
        <mxCell id="8asCWF7hndouSURrxrHH-17" style="rounded=0;orthogonalLoop=1;jettySize=auto;html=1;exitX=0.5;exitY=1;exitDx=0;exitDy=0;" edge="1" parent="1" source="8asCWF7hndouSURrxrHH-7">
          <mxGeometry relative="1" as="geometry">
            <mxPoint x="350" y="320" as="targetPoint" />
          </mxGeometry>
        </mxCell>
        <mxCell id="8asCWF7hndouSURrxrHH-7" value="&lt;font style=&quot;font-size: 10px;&quot;&gt;Нажать кнопку &quot;Следующий&quot;&lt;/font&gt;" style="ellipse;whiteSpace=wrap;html=1;aspect=fixed;" vertex="1" parent="1">
          <mxGeometry x="370" y="200" width="80" height="80" as="geometry" />
        </mxCell>
        <mxCell id="8asCWF7hndouSURrxrHH-8" value="" style="whiteSpace=wrap;html=1;aspect=fixed;fillColor=#000000;" vertex="1" parent="1">
          <mxGeometry x="405" y="210" width="10" height="10" as="geometry" />
        </mxCell>
        <mxCell id="8asCWF7hndouSURrxrHH-14" style="rounded=0;orthogonalLoop=1;jettySize=auto;html=1;exitX=0.5;exitY=1;exitDx=0;exitDy=0;" edge="1" parent="1" source="8asCWF7hndouSURrxrHH-9">
          <mxGeometry relative="1" as="geometry">
            <mxPoint x="210" y="320" as="targetPoint" />
          </mxGeometry>
        </mxCell>
        <mxCell id="8asCWF7hndouSURrxrHH-9" value="&lt;font style=&quot;font-size: 10px;&quot;&gt;Выбор нового элемента (1-5)&lt;/font&gt;" style="ellipse;whiteSpace=wrap;html=1;aspect=fixed;" vertex="1" parent="1">
          <mxGeometry x="110" y="200" width="80" height="80" as="geometry" />
        </mxCell>
        <mxCell id="8asCWF7hndouSURrxrHH-11" value="" style="whiteSpace=wrap;html=1;aspect=fixed;fillColor=#000000;" vertex="1" parent="1">
          <mxGeometry x="145" y="210" width="10" height="10" as="geometry" />
        </mxCell>
        <mxCell id="8asCWF7hndouSURrxrHH-12" value="" style="endArrow=none;html=1;rounded=0;jumpSize=6;strokeWidth=2;" edge="1" parent="1">
          <mxGeometry width="50" height="50" relative="1" as="geometry">
            <mxPoint x="190" y="320" as="sourcePoint" />
            <mxPoint x="240" y="320" as="targetPoint" />
          </mxGeometry>
        </mxCell>
        <mxCell id="8asCWF7hndouSURrxrHH-13" value="" style="endArrow=none;html=1;rounded=0;jumpSize=6;strokeWidth=2;" edge="1" parent="1">
          <mxGeometry width="50" height="50" relative="1" as="geometry">
            <mxPoint x="320" y="320" as="sourcePoint" />
            <mxPoint x="370" y="320" as="targetPoint" />
          </mxGeometry>
        </mxCell>
        <mxCell id="8asCWF7hndouSURrxrHH-30" style="rounded=0;orthogonalLoop=1;jettySize=auto;html=1;exitX=0.5;exitY=1;exitDx=0;exitDy=0;" edge="1" parent="1" source="8asCWF7hndouSURrxrHH-18">
          <mxGeometry relative="1" as="geometry">
            <mxPoint x="330" y="510" as="targetPoint" />
          </mxGeometry>
        </mxCell>
        <mxCell id="8asCWF7hndouSURrxrHH-33" style="rounded=0;orthogonalLoop=1;jettySize=auto;html=1;exitX=0.5;exitY=1;exitDx=0;exitDy=0;" edge="1" parent="1" source="8asCWF7hndouSURrxrHH-18">
          <mxGeometry relative="1" as="geometry">
            <mxPoint x="180" y="510" as="targetPoint" />
          </mxGeometry>
        </mxCell>
        <mxCell id="8asCWF7hndouSURrxrHH-18" value="&lt;span style=&quot;font-size: 10px;&quot;&gt;Обновленная страница&lt;/span&gt;" style="ellipse;whiteSpace=wrap;html=1;aspect=fixed;" vertex="1" parent="1">
          <mxGeometry x="240" y="380" width="80" height="80" as="geometry" />
        </mxCell>
        <mxCell id="8asCWF7hndouSURrxrHH-31" style="rounded=0;orthogonalLoop=1;jettySize=auto;html=1;exitX=0.5;exitY=1;exitDx=0;exitDy=0;" edge="1" parent="1" source="8asCWF7hndouSURrxrHH-19">
          <mxGeometry relative="1" as="geometry">
            <mxPoint x="350" y="510" as="targetPoint" />
          </mxGeometry>
        </mxCell>
        <mxCell id="8asCWF7hndouSURrxrHH-19" value="&lt;span style=&quot;font-size: 10px;&quot;&gt;Выбран &quot;Элемент 1-4&quot;&lt;/span&gt;" style="ellipse;whiteSpace=wrap;html=1;aspect=fixed;" vertex="1" parent="1">
          <mxGeometry x="370" y="380" width="80" height="80" as="geometry" />
        </mxCell>
        <mxCell id="8asCWF7hndouSURrxrHH-21" value="" style="ellipse;whiteSpace=wrap;html=1;aspect=fixed;fillColor=#000000;" vertex="1" parent="1">
          <mxGeometry x="275" y="390" width="10" height="10" as="geometry" />
        </mxCell>
        <mxCell id="8asCWF7hndouSURrxrHH-32" style="rounded=0;orthogonalLoop=1;jettySize=auto;html=1;exitX=0.5;exitY=1;exitDx=0;exitDy=0;" edge="1" parent="1" source="8asCWF7hndouSURrxrHH-24">
          <mxGeometry relative="1" as="geometry">
            <mxPoint x="170" y="510" as="targetPoint" />
          </mxGeometry>
        </mxCell>
        <mxCell id="8asCWF7hndouSURrxrHH-24" value="&lt;span style=&quot;font-size: 10px;&quot;&gt;Выбран &quot;Элемент 5&quot;&lt;/span&gt;" style="ellipse;whiteSpace=wrap;html=1;aspect=fixed;" vertex="1" parent="1">
          <mxGeometry x="40" y="380" width="80" height="80" as="geometry" />
        </mxCell>
        <mxCell id="8asCWF7hndouSURrxrHH-28" value="" style="endArrow=none;html=1;rounded=0;jumpSize=6;strokeWidth=2;" edge="1" parent="1">
          <mxGeometry width="50" height="50" relative="1" as="geometry">
            <mxPoint x="145" y="510" as="sourcePoint" />
            <mxPoint x="195" y="510" as="targetPoint" />
          </mxGeometry>
        </mxCell>
        <mxCell id="8asCWF7hndouSURrxrHH-29" value="" style="endArrow=none;html=1;rounded=0;jumpSize=6;strokeWidth=2;" edge="1" parent="1">
          <mxGeometry width="50" height="50" relative="1" as="geometry">
            <mxPoint x="320" y="510" as="sourcePoint" />
            <mxPoint x="370" y="510" as="targetPoint" />
          </mxGeometry>
        </mxCell>
        <mxCell id="8asCWF7hndouSURrxrHH-34" value="" style="endArrow=none;html=1;rounded=0;jumpSize=6;strokeWidth=2;" edge="1" parent="1">
          <mxGeometry width="50" height="50" relative="1" as="geometry">
            <mxPoint x="255" y="350" as="sourcePoint" />
            <mxPoint x="305" y="350" as="targetPoint" />
          </mxGeometry>
        </mxCell>
        <mxCell id="8asCWF7hndouSURrxrHH-35" value="" style="endArrow=classic;html=1;rounded=0;" edge="1" parent="1">
          <mxGeometry width="50" height="50" relative="1" as="geometry">
            <mxPoint x="210" y="320" as="sourcePoint" />
            <mxPoint x="270" y="350" as="targetPoint" />
          </mxGeometry>
        </mxCell>
        <mxCell id="8asCWF7hndouSURrxrHH-36" value="" style="endArrow=classic;html=1;rounded=0;" edge="1" parent="1">
          <mxGeometry width="50" height="50" relative="1" as="geometry">
            <mxPoint x="340" y="320" as="sourcePoint" />
            <mxPoint x="290" y="350" as="targetPoint" />
          </mxGeometry>
        </mxCell>
        <mxCell id="8asCWF7hndouSURrxrHH-37" value="" style="endArrow=classic;html=1;rounded=0;entryX=0.5;entryY=0;entryDx=0;entryDy=0;" edge="1" parent="1" target="8asCWF7hndouSURrxrHH-18">
          <mxGeometry width="50" height="50" relative="1" as="geometry">
            <mxPoint x="280" y="350" as="sourcePoint" />
            <mxPoint x="370" y="360" as="targetPoint" />
          </mxGeometry>
        </mxCell>
        <mxCell id="8asCWF7hndouSURrxrHH-60" style="edgeStyle=orthogonalEdgeStyle;rounded=0;orthogonalLoop=1;jettySize=auto;html=1;exitX=0.5;exitY=1;exitDx=0;exitDy=0;" edge="1" parent="1" source="8asCWF7hndouSURrxrHH-38">
          <mxGeometry relative="1" as="geometry">
            <mxPoint x="84.88235294117658" y="720" as="targetPoint" />
          </mxGeometry>
        </mxCell>
        <mxCell id="8asCWF7hndouSURrxrHH-38" value="&lt;font style=&quot;font-size: 10px;&quot;&gt;Состояние - кнопка &quot;Следующий&quot; заблокирована&lt;/font&gt;" style="ellipse;whiteSpace=wrap;html=1;aspect=fixed;" vertex="1" parent="1">
          <mxGeometry x="40" y="560" width="90" height="90" as="geometry" />
        </mxCell>
        <mxCell id="8asCWF7hndouSURrxrHH-40" value="" style="endArrow=classic;html=1;rounded=0;entryX=0.5;entryY=0;entryDx=0;entryDy=0;" edge="1" parent="1" target="8asCWF7hndouSURrxrHH-38">
          <mxGeometry width="50" height="50" relative="1" as="geometry">
            <mxPoint x="170" y="510" as="sourcePoint" />
            <mxPoint x="340" y="420" as="targetPoint" />
          </mxGeometry>
        </mxCell>
        <mxCell id="8asCWF7hndouSURrxrHH-61" style="rounded=0;orthogonalLoop=1;jettySize=auto;html=1;exitX=0.5;exitY=1;exitDx=0;exitDy=0;" edge="1" parent="1" source="8asCWF7hndouSURrxrHH-42">
          <mxGeometry relative="1" as="geometry">
            <mxPoint x="100" y="720" as="targetPoint" />
          </mxGeometry>
        </mxCell>
        <mxCell id="8asCWF7hndouSURrxrHH-42" value="&lt;font style=&quot;font-size: 10px;&quot;&gt;Нажать кнопку &quot;Предыдущий&quot;&lt;/font&gt;" style="ellipse;whiteSpace=wrap;html=1;aspect=fixed;" vertex="1" parent="1">
          <mxGeometry x="160" y="560" width="80" height="80" as="geometry" />
        </mxCell>
        <mxCell id="8asCWF7hndouSURrxrHH-59" style="rounded=0;orthogonalLoop=1;jettySize=auto;html=1;exitX=0.5;exitY=1;exitDx=0;exitDy=0;" edge="1" parent="1" source="8asCWF7hndouSURrxrHH-43">
          <mxGeometry relative="1" as="geometry">
            <mxPoint x="70" y="720" as="targetPoint" />
          </mxGeometry>
        </mxCell>
        <mxCell id="8asCWF7hndouSURrxrHH-43" value="&lt;font style=&quot;font-size: 10px;&quot;&gt;Выбор&amp;nbsp; элемента (1-5)&lt;/font&gt;" style="ellipse;whiteSpace=wrap;html=1;aspect=fixed;" vertex="1" parent="1">
          <mxGeometry x="-70" y="560" width="80" height="80" as="geometry" />
        </mxCell>
        <mxCell id="8asCWF7hndouSURrxrHH-55" style="rounded=0;orthogonalLoop=1;jettySize=auto;html=1;exitX=0.5;exitY=1;exitDx=0;exitDy=0;" edge="1" parent="1" source="8asCWF7hndouSURrxrHH-44">
          <mxGeometry relative="1" as="geometry">
            <mxPoint x="530" y="720" as="targetPoint" />
          </mxGeometry>
        </mxCell>
        <mxCell id="8asCWF7hndouSURrxrHH-44" value="&lt;font style=&quot;font-size: 10px;&quot;&gt;Состояние - кнопка &quot;Следующий&quot; активна&lt;/font&gt;" style="ellipse;whiteSpace=wrap;html=1;aspect=fixed;" vertex="1" parent="1">
          <mxGeometry x="430" y="560" width="90" height="90" as="geometry" />
        </mxCell>
        <mxCell id="8asCWF7hndouSURrxrHH-57" style="rounded=0;orthogonalLoop=1;jettySize=auto;html=1;exitX=0.5;exitY=1;exitDx=0;exitDy=0;" edge="1" parent="1" source="8asCWF7hndouSURrxrHH-45">
          <mxGeometry relative="1" as="geometry">
            <mxPoint x="550" y="720" as="targetPoint" />
          </mxGeometry>
        </mxCell>
        <mxCell id="8asCWF7hndouSURrxrHH-45" value="&lt;font style=&quot;font-size: 10px;&quot;&gt;Нажать кнопку &quot;Предыдущий&quot;&lt;/font&gt;" style="ellipse;whiteSpace=wrap;html=1;aspect=fixed;" vertex="1" parent="1">
          <mxGeometry x="550" y="560" width="80" height="80" as="geometry" />
        </mxCell>
        <mxCell id="8asCWF7hndouSURrxrHH-56" style="rounded=0;orthogonalLoop=1;jettySize=auto;html=1;exitX=0.5;exitY=1;exitDx=0;exitDy=0;" edge="1" parent="1" source="8asCWF7hndouSURrxrHH-46">
          <mxGeometry relative="1" as="geometry">
            <mxPoint x="530" y="720" as="targetPoint" />
          </mxGeometry>
        </mxCell>
        <mxCell id="8asCWF7hndouSURrxrHH-46" value="&lt;font style=&quot;font-size: 10px;&quot;&gt;Выбор&amp;nbsp; элемента (1-5)&lt;/font&gt;" style="ellipse;whiteSpace=wrap;html=1;aspect=fixed;" vertex="1" parent="1">
          <mxGeometry x="320" y="560" width="80" height="80" as="geometry" />
        </mxCell>
        <mxCell id="8asCWF7hndouSURrxrHH-58" style="rounded=0;orthogonalLoop=1;jettySize=auto;html=1;exitX=0.5;exitY=1;exitDx=0;exitDy=0;" edge="1" parent="1" source="8asCWF7hndouSURrxrHH-47">
          <mxGeometry relative="1" as="geometry">
            <mxPoint x="550" y="720" as="targetPoint" />
          </mxGeometry>
        </mxCell>
        <mxCell id="8asCWF7hndouSURrxrHH-47" value="&lt;font style=&quot;font-size: 10px;&quot;&gt;Нажать кнопку &quot;Следующий&quot;&lt;/font&gt;" style="ellipse;whiteSpace=wrap;html=1;aspect=fixed;" vertex="1" parent="1">
          <mxGeometry x="660" y="560" width="80" height="80" as="geometry" />
        </mxCell>
        <mxCell id="8asCWF7hndouSURrxrHH-49" value="" style="ellipse;whiteSpace=wrap;html=1;aspect=fixed;fillColor=#000000;" vertex="1" parent="1">
          <mxGeometry x="80" y="570" width="10" height="10" as="geometry" />
        </mxCell>
        <mxCell id="8asCWF7hndouSURrxrHH-50" value="" style="ellipse;whiteSpace=wrap;html=1;aspect=fixed;fillColor=#000000;" vertex="1" parent="1">
          <mxGeometry x="470" y="570" width="10" height="10" as="geometry" />
        </mxCell>
        <mxCell id="8asCWF7hndouSURrxrHH-51" value="" style="endArrow=classic;html=1;rounded=0;entryX=0.5;entryY=0;entryDx=0;entryDy=0;" edge="1" parent="1" target="8asCWF7hndouSURrxrHH-44">
          <mxGeometry width="50" height="50" relative="1" as="geometry">
            <mxPoint x="340" y="510" as="sourcePoint" />
            <mxPoint x="340" y="520" as="targetPoint" />
          </mxGeometry>
        </mxCell>
        <mxCell id="8asCWF7hndouSURrxrHH-53" value="" style="endArrow=none;html=1;rounded=0;jumpSize=6;strokeWidth=2;" edge="1" parent="1">
          <mxGeometry width="50" height="50" relative="1" as="geometry">
            <mxPoint x="60" y="720" as="sourcePoint" />
            <mxPoint x="110" y="720" as="targetPoint" />
          </mxGeometry>
        </mxCell>
        <mxCell id="8asCWF7hndouSURrxrHH-54" value="" style="endArrow=none;html=1;rounded=0;jumpSize=6;strokeWidth=2;" edge="1" parent="1">
          <mxGeometry width="50" height="50" relative="1" as="geometry">
            <mxPoint x="520" y="720" as="sourcePoint" />
            <mxPoint x="570" y="720" as="targetPoint" />
          </mxGeometry>
        </mxCell>
        <mxCell id="8asCWF7hndouSURrxrHH-62" value="" style="endArrow=classic;html=1;rounded=0;" edge="1" parent="1">
          <mxGeometry width="50" height="50" relative="1" as="geometry">
            <mxPoint x="80" y="720" as="sourcePoint" />
            <mxPoint x="280" y="180" as="targetPoint" />
            <Array as="points">
              <mxPoint x="80" y="740" />
              <mxPoint x="80" y="760" />
              <mxPoint x="-10" y="760" />
              <mxPoint x="-120" y="760" />
              <mxPoint x="-120" y="180" />
            </Array>
          </mxGeometry>
        </mxCell>
        <mxCell id="8asCWF7hndouSURrxrHH-63" value="" style="whiteSpace=wrap;html=1;aspect=fixed;fillColor=#000000;" vertex="1" parent="1">
          <mxGeometry x="355" y="570" width="10" height="10" as="geometry" />
        </mxCell>
        <mxCell id="8asCWF7hndouSURrxrHH-64" value="" style="whiteSpace=wrap;html=1;aspect=fixed;fillColor=#000000;" vertex="1" parent="1">
          <mxGeometry x="585" y="570" width="10" height="10" as="geometry" />
        </mxCell>
        <mxCell id="8asCWF7hndouSURrxrHH-65" value="" style="whiteSpace=wrap;html=1;aspect=fixed;fillColor=#000000;" vertex="1" parent="1">
          <mxGeometry x="695" y="570" width="10" height="10" as="geometry" />
        </mxCell>
        <mxCell id="8asCWF7hndouSURrxrHH-66" value="" style="whiteSpace=wrap;html=1;aspect=fixed;fillColor=#000000;" vertex="1" parent="1">
          <mxGeometry x="195" y="570" width="10" height="10" as="geometry" />
        </mxCell>
        <mxCell id="8asCWF7hndouSURrxrHH-67" value="" style="whiteSpace=wrap;html=1;aspect=fixed;fillColor=#000000;" vertex="1" parent="1">
          <mxGeometry x="-35" y="570" width="10" height="10" as="geometry" />
        </mxCell>
        <mxCell id="8asCWF7hndouSURrxrHH-68" value="&lt;font style=&quot;font-size: 8px;&quot;&gt;Сток (завершение рассмотрения процесса)&lt;/font&gt;" style="ellipse;whiteSpace=wrap;html=1;aspect=fixed;" vertex="1" parent="1">
          <mxGeometry x="240" y="790" width="80" height="80" as="geometry" />
        </mxCell>
        <mxCell id="8asCWF7hndouSURrxrHH-69" value="" style="endArrow=classic;html=1;rounded=0;" edge="1" parent="1">
          <mxGeometry width="50" height="50" relative="1" as="geometry">
            <mxPoint x="90" y="720" as="sourcePoint" />
            <mxPoint x="270" y="760" as="targetPoint" />
          </mxGeometry>
        </mxCell>
        <mxCell id="8asCWF7hndouSURrxrHH-71" value="" style="triangle;whiteSpace=wrap;html=1;direction=north;fillColor=#000000;" vertex="1" parent="1">
          <mxGeometry x="275" y="800" width="10" height="10" as="geometry" />
        </mxCell>
        <mxCell id="8asCWF7hndouSURrxrHH-72" value="" style="endArrow=classic;html=1;rounded=0;" edge="1" parent="1">
          <mxGeometry width="50" height="50" relative="1" as="geometry">
            <mxPoint x="540" y="720" as="sourcePoint" />
            <mxPoint x="280" y="360" as="targetPoint" />
            <Array as="points">
              <mxPoint x="540" y="760" />
              <mxPoint x="760" y="760" />
              <mxPoint x="760" y="360" />
            </Array>
          </mxGeometry>
        </mxCell>
        <mxCell id="8asCWF7hndouSURrxrHH-73" value="" style="endArrow=classic;html=1;rounded=0;" edge="1" parent="1">
          <mxGeometry width="50" height="50" relative="1" as="geometry">
            <mxPoint x="540" y="720" as="sourcePoint" />
            <mxPoint x="300" y="760" as="targetPoint" />
          </mxGeometry>
        </mxCell>
        <mxCell id="8asCWF7hndouSURrxrHH-74" value="" style="endArrow=none;html=1;rounded=0;jumpSize=6;strokeWidth=2;" edge="1" parent="1">
          <mxGeometry width="50" height="50" relative="1" as="geometry">
            <mxPoint x="260" y="760" as="sourcePoint" />
            <mxPoint x="310" y="760" as="targetPoint" />
          </mxGeometry>
        </mxCell>
        <mxCell id="8asCWF7hndouSURrxrHH-75" value="" style="endArrow=classic;html=1;rounded=0;entryX=0.5;entryY=0;entryDx=0;entryDy=0;" edge="1" parent="1" target="8asCWF7hndouSURrxrHH-68">
          <mxGeometry width="50" height="50" relative="1" as="geometry">
            <mxPoint x="280" y="760" as="sourcePoint" />
            <mxPoint x="360" y="670" as="targetPoint" />
          </mxGeometry>
        </mxCell>
        <mxCell id="8asCWF7hndouSURrxrHH-76" value="" style="ellipse;whiteSpace=wrap;html=1;aspect=fixed;fillColor=#000000;" vertex="1" parent="1">
          <mxGeometry x="40" y="740" width="10" height="10" as="geometry" />
        </mxCell>
        <mxCell id="8asCWF7hndouSURrxrHH-77" value="" style="ellipse;whiteSpace=wrap;html=1;aspect=fixed;fillColor=#000000;" vertex="1" parent="1">
          <mxGeometry x="20" y="740" width="10" height="10" as="geometry" />
        </mxCell>
        <mxCell id="8asCWF7hndouSURrxrHH-78" value="" style="ellipse;whiteSpace=wrap;html=1;aspect=fixed;fillColor=#000000;" vertex="1" parent="1">
          <mxGeometry x="210" y="160" width="10" height="10" as="geometry" />
        </mxCell>
        <mxCell id="8asCWF7hndouSURrxrHH-79" value="" style="ellipse;whiteSpace=wrap;html=1;aspect=fixed;fillColor=#000000;" vertex="1" parent="1">
          <mxGeometry x="190" y="160" width="10" height="10" as="geometry" />
        </mxCell>
        <mxCell id="8asCWF7hndouSURrxrHH-80" value="" style="ellipse;whiteSpace=wrap;html=1;aspect=fixed;fillColor=#000000;" vertex="1" parent="1">
          <mxGeometry x="330" y="340" width="10" height="10" as="geometry" />
        </mxCell>
        <mxCell id="8asCWF7hndouSURrxrHH-81" value="" style="ellipse;whiteSpace=wrap;html=1;aspect=fixed;fillColor=#000000;" vertex="1" parent="1">
          <mxGeometry x="345" y="340" width="10" height="10" as="geometry" />
        </mxCell>
        <mxCell id="8asCWF7hndouSURrxrHH-82" value="" style="ellipse;whiteSpace=wrap;html=1;aspect=fixed;fillColor=#000000;" vertex="1" parent="1">
          <mxGeometry x="550" y="740" width="10" height="10" as="geometry" />
        </mxCell>
        <mxCell id="8asCWF7hndouSURrxrHH-83" value="" style="ellipse;whiteSpace=wrap;html=1;aspect=fixed;fillColor=#000000;" vertex="1" parent="1">
          <mxGeometry x="570" y="740" width="10" height="10" as="geometry" />
        </mxCell>
      </root>
    </mxGraphModel>
  </diagram>
</mxfile>
